<svg width="376" height="50" viewBox="0 0 376 50" fill="none" xmlns="http://www.w3.org/2000/svg">
<path d="M162.291 38.5875C165.526 38.5875 168.202 37.7691 170.32 36.1322C172.451 34.4952 173.932 32.2932 174.763 29.526L170.632 28.4152C170.073 30.3769 169.099 31.9164 167.709 33.0337C166.319 34.151 164.513 34.7096 162.291 34.7096C160.304 34.7096 158.641 34.2614 157.303 33.365C155.978 32.4686 154.977 31.2149 154.302 29.6039C153.639 27.993 153.314 26.1157 153.327 23.9721C153.34 21.8286 153.678 19.9513 154.341 18.3404C155.003 16.7294 155.997 15.4757 157.322 14.5793C158.647 13.6829 160.304 13.2347 162.291 13.2347C164.513 13.2347 166.319 13.7933 167.709 14.9106C169.099 16.0279 170.073 17.5674 170.632 19.5291L174.763 18.4183C173.932 15.6511 172.451 13.4491 170.32 11.8121C168.202 10.1752 165.526 9.35677 162.291 9.35677C159.485 9.35677 157.095 9.97386 155.12 11.208C153.145 12.4422 151.632 14.1571 150.58 16.3527C149.54 18.5352 149.021 21.0751 149.021 23.9721C149.021 26.8692 149.54 29.4156 150.58 31.6111C151.632 33.7937 153.145 35.5021 155.12 36.7363C157.095 37.9704 159.485 38.5875 162.291 38.5875Z" fill="#777777"/>
<path d="M188.189 38.5875C190.28 38.5875 192.099 38.1198 193.645 37.1845C195.191 36.2361 196.386 34.9304 197.231 33.2675C198.088 31.5916 198.517 29.6559 198.517 27.4604C198.517 25.2908 198.095 23.3745 197.25 21.7116C196.406 20.0357 195.21 18.7301 193.665 17.7947C192.119 16.8463 190.293 16.3722 188.189 16.3722C186.123 16.3722 184.317 16.8398 182.771 17.7752C181.225 18.7106 180.023 20.0098 179.166 21.6727C178.309 23.3356 177.88 25.2648 177.88 27.4604C177.88 29.6299 178.302 31.5527 179.147 33.2286C179.991 34.9045 181.18 36.2166 182.713 37.165C184.259 38.1133 186.084 38.5875 188.189 38.5875ZM188.189 34.7486C186.227 34.7486 184.739 34.0925 183.726 32.7804C182.713 31.4552 182.206 29.6819 182.206 27.4604C182.206 25.3168 182.693 23.5759 183.668 22.2378C184.642 20.8867 186.149 20.2111 188.189 20.2111C190.176 20.2111 191.67 20.8672 192.671 22.1793C193.684 23.4915 194.191 25.2518 194.191 27.4604C194.191 29.6169 193.69 31.3708 192.69 32.7219C191.703 34.073 190.202 34.7486 188.189 34.7486Z" fill="#777777"/>
<path d="M202.78 38.0029H206.872V24.8491C206.872 23.42 207.262 22.2638 208.041 21.3804C208.834 20.4969 209.873 20.0552 211.159 20.0552C212.458 20.0552 213.491 20.4969 214.258 21.3804C215.037 22.2508 215.427 23.446 215.427 24.966L215.407 38.0029H219.48L219.5 24.8491C219.5 23.2641 219.922 22.0689 220.766 21.2634C221.624 20.458 222.631 20.0552 223.787 20.0552C225.06 20.0552 226.086 20.4839 226.866 21.3414C227.645 22.1988 228.035 23.381 228.035 24.888L228.016 38.0029H232.088L232.108 23.9137C232.108 21.6532 231.478 19.8409 230.218 18.4768C228.97 17.1127 227.217 16.4306 224.956 16.4306C223.579 16.4306 222.332 16.7359 221.215 17.3465C220.097 17.9441 219.214 18.7756 218.564 19.8409C218.006 18.7756 217.207 17.9441 216.167 17.3465C215.141 16.7359 213.9 16.4306 212.445 16.4306C211.185 16.4306 210.029 16.6839 208.977 17.1906C207.937 17.6843 207.08 18.3598 206.404 19.2173V16.9568H202.78V38.0029Z" fill="#777777"/>
<path d="M237.149 47.3568H241.241V36.5219C241.981 37.1845 242.832 37.6911 243.794 38.0419C244.768 38.4057 245.853 38.5875 247.048 38.5875C249.01 38.5875 250.699 38.1004 252.115 37.126C253.544 36.1386 254.642 34.807 255.408 33.1311C256.188 31.4552 256.577 29.565 256.577 27.4604C256.577 25.3427 256.188 23.4525 255.408 21.7896C254.629 20.1137 253.518 18.7951 252.076 17.8337C250.647 16.8593 248.945 16.3722 246.97 16.3722C245.671 16.3722 244.502 16.593 243.462 17.0347C242.423 17.4634 241.527 18.0675 240.773 18.847V16.9568H237.149V47.3568ZM246.483 34.9045C244.482 34.9045 243.027 34.2094 242.118 32.8193C241.221 31.4292 240.773 29.6429 240.773 27.4604C240.773 25.2778 241.221 23.498 242.118 22.1209C243.014 20.7438 244.424 20.0552 246.347 20.0552C247.698 20.0552 248.808 20.3865 249.679 21.0491C250.549 21.7116 251.192 22.6016 251.608 23.7188C252.037 24.8361 252.251 26.0833 252.251 27.4604C252.251 28.8504 252.043 30.1106 251.628 31.2409C251.212 32.3581 250.575 33.248 249.718 33.9106C248.873 34.5732 247.795 34.9045 246.483 34.9045Z" fill="#777777"/>
<path d="M266.824 38.5875C270.175 38.5875 272.702 37.3728 274.404 34.9434V38.0029H278.009V25.0439C278.009 24.1605 277.97 23.3356 277.892 22.5691C277.814 21.8026 277.607 21.0751 277.269 20.3865C276.619 18.9964 275.593 17.9831 274.19 17.3465C272.8 16.6969 271.163 16.3722 269.279 16.3722C266.85 16.3722 264.901 16.9048 263.433 17.9701C261.965 19.0354 260.977 20.471 260.471 22.2768L264.271 23.446C264.635 22.2768 265.278 21.4323 266.2 20.9127C267.122 20.393 268.136 20.1332 269.24 20.1332C270.877 20.1332 272.059 20.4839 272.787 21.1855C273.527 21.874 273.93 22.9458 273.995 24.4009C272.28 24.6347 270.604 24.8816 268.967 25.1414C267.33 25.3882 265.901 25.687 264.68 26.0378C263.056 26.5574 261.822 27.3304 260.977 28.3568C260.133 29.3831 259.711 30.6887 259.711 32.2737C259.711 33.4169 259.977 34.4692 260.51 35.4306C261.055 36.379 261.854 37.1455 262.907 37.7301C263.972 38.3017 265.278 38.5875 266.824 38.5875ZM267.545 35.2552C266.246 35.2552 265.284 34.9564 264.661 34.3588C264.05 33.7612 263.745 33.0532 263.745 32.2347C263.745 31.4033 264.017 30.7472 264.563 30.2665C265.122 29.7858 265.817 29.4026 266.648 29.1168C267.532 28.8569 268.571 28.6296 269.766 28.4347C270.974 28.2398 272.371 28.0255 273.956 27.7916C273.943 28.2853 273.91 28.8375 273.858 29.448C273.807 30.0586 273.696 30.6043 273.527 31.085C273.371 31.7735 273.04 32.4361 272.533 33.0727C272.04 33.7092 271.371 34.2354 270.526 34.6511C269.695 35.0539 268.701 35.2552 267.545 35.2552Z" fill="#777777"/>
<path d="M292.073 38.5875C294.333 38.5875 296.256 38.0419 297.841 36.9506C299.426 35.8593 300.563 34.2809 301.251 32.2152L297.12 31.2409C296.691 32.3711 296.068 33.2416 295.249 33.8521C294.444 34.4498 293.385 34.7486 292.073 34.7486C290.15 34.7486 288.695 34.0795 287.708 32.7414C286.733 31.4033 286.239 29.6494 286.226 27.4798C286.239 25.3752 286.714 23.6409 287.649 22.2768C288.597 20.8997 290.072 20.2111 292.073 20.2111C293.255 20.2111 294.301 20.5424 295.21 21.205C296.132 21.8545 296.795 22.7704 297.198 23.9527L301.251 22.7834C300.731 20.8087 299.653 19.2498 298.016 18.1065C296.392 16.9503 294.431 16.3722 292.131 16.3722C290.014 16.3722 288.188 16.8463 286.655 17.7947C285.135 18.7431 283.966 20.0552 283.148 21.7311C282.329 23.394 281.913 25.3103 281.9 27.4798C281.913 29.6104 282.316 31.5137 283.109 33.1896C283.914 34.8655 285.07 36.1841 286.577 37.1455C288.097 38.1069 289.929 38.5875 292.073 38.5875Z" fill="#777777"/>
<path d="M317.264 38.0029V34.5537C315.887 34.7616 314.685 34.807 313.659 34.6901C312.646 34.5602 311.905 34.099 311.437 33.3065C311.191 32.8778 311.054 32.3516 311.028 31.728C311.015 31.1045 311.009 30.3704 311.009 29.526V20.2306H317.264V16.9568H311.009V11.1106H306.916V16.9568H302.883V20.2306H306.916V29.7209C306.916 30.8641 306.929 31.8904 306.955 32.7998C306.994 33.6963 307.241 34.5797 307.696 35.4501C308.216 36.4245 308.976 37.139 309.976 37.5937C310.976 38.0484 312.113 38.2952 313.386 38.3342C314.659 38.3732 315.952 38.2627 317.264 38.0029Z" fill="#777777"/>
<path d="M329.851 38.5875C331.943 38.5875 333.762 38.1198 335.308 37.1845C336.854 36.2361 338.049 34.9304 338.893 33.2675C339.751 31.5916 340.179 29.6559 340.179 27.4604C340.179 25.2908 339.757 23.3745 338.913 21.7116C338.068 20.0357 336.873 18.7301 335.327 17.7947C333.781 16.8463 331.956 16.3722 329.851 16.3722C327.786 16.3722 325.98 16.8398 324.434 17.7752C322.888 18.7106 321.686 20.0098 320.829 21.6727C319.971 23.3356 319.543 25.2648 319.543 27.4604C319.543 29.6299 319.965 31.5527 320.809 33.2286C321.654 34.9045 322.842 36.2166 324.375 37.165C325.921 38.1133 327.747 38.5875 329.851 38.5875ZM329.851 34.7486C327.89 34.7486 326.402 34.0925 325.389 32.7804C324.375 31.4552 323.869 29.6819 323.869 27.4604C323.869 25.3168 324.356 23.5759 325.33 22.2378C326.305 20.8867 327.812 20.2111 329.851 20.2111C331.839 20.2111 333.333 20.8672 334.333 22.1793C335.347 23.4915 335.853 25.2518 335.853 27.4604C335.853 29.6169 335.353 31.3708 334.353 32.7219C333.365 34.073 331.865 34.7486 329.851 34.7486Z" fill="#777777"/>
<path d="M344.462 38.0029H348.574V27.3824C348.574 26.1482 348.768 25.005 349.158 23.9527C349.548 22.9004 350.236 22.0559 351.224 21.4193C351.925 20.9646 352.698 20.6983 353.543 20.6204C354.387 20.5424 355.147 20.5944 355.823 20.7763V16.9568C354.874 16.7749 353.868 16.7814 352.802 16.9763C351.75 17.1711 350.828 17.5609 350.035 18.1455C349.256 18.6651 348.606 19.3862 348.086 20.3086V16.9568H344.462V38.0029Z" fill="#777777"/>
<path d="M366.821 38.568C369.484 38.568 371.569 37.9769 373.076 36.7947C374.596 35.6125 375.356 33.9821 375.356 31.9034C375.356 30.8122 375.129 29.8898 374.674 29.1363C374.232 28.3827 373.492 27.7332 372.453 27.1875C371.413 26.6289 370.01 26.1222 368.243 25.6675C366.594 25.2518 365.346 24.8945 364.502 24.5957C363.67 24.2839 363.105 23.9722 362.807 23.6604C362.508 23.3356 362.358 22.9393 362.358 22.4716C362.358 21.6662 362.742 21.0361 363.508 20.5814C364.275 20.1137 365.275 19.9058 366.509 19.9578C367.795 20.0098 368.841 20.3345 369.647 20.9322C370.452 21.5168 370.926 22.3092 371.069 23.3096L375.239 22.5496C375.005 20.6788 374.09 19.1848 372.492 18.0675C370.894 16.9373 368.887 16.3722 366.47 16.3722C364.002 16.3722 362.021 16.9503 360.527 18.1065C359.032 19.2498 358.285 20.7763 358.285 22.686C358.285 23.7123 358.506 24.5892 358.948 25.3168C359.403 26.0313 360.156 26.6549 361.209 27.1875C362.274 27.7202 363.709 28.2269 365.515 28.7075C367.165 29.1492 368.393 29.5195 369.198 29.8183C370.004 30.1171 370.53 30.4354 370.777 30.7732C371.037 31.098 371.167 31.5267 371.167 32.0593C371.167 32.9687 370.803 33.6833 370.075 34.2029C369.361 34.7226 368.367 34.9824 367.094 34.9824C365.691 34.9824 364.515 34.6706 363.567 34.047C362.631 33.4234 362.034 32.5595 361.774 31.4552L357.603 32.0983C357.967 34.151 358.955 35.7424 360.565 36.8727C362.176 38.0029 364.262 38.568 366.821 38.568Z" fill="#777777"/>
<path d="M0.605469 46.419H7.38846C7.38846 46.419 14.9401 18.417 39.686 7.99765V1.48557C9.07925 13.8585 0.605469 46.419 0.605469 46.419Z" fill="#88CC44"/>
<path d="M117.894 43.4183C114.497 46.0439 110.204 47.3568 105.015 47.3568C100.514 47.3568 96.68 46.3669 93.5125 44.3873C90.345 42.4076 87.9173 39.6673 86.2294 36.1664C84.5623 32.6447 83.7287 28.5603 83.7287 23.9133C83.7287 19.2662 84.5623 15.1923 86.2294 11.6914C87.9173 8.16965 90.345 5.41894 93.5125 3.43927C96.68 1.45959 100.514 0.469757 105.015 0.469757C110.204 0.469757 114.497 1.78259 117.894 4.40826C121.311 7.03394 123.687 10.5661 125.021 15.0047L118.394 16.7864C117.498 13.6398 115.935 11.1704 113.705 9.37829C111.475 7.58616 108.579 6.6901 105.015 6.6901C101.827 6.6901 99.1702 7.40904 97.0447 8.8469C94.9191 10.2848 93.325 12.2957 92.2622 14.8797C91.1994 17.4637 90.6576 20.4749 90.6368 23.9133C90.6159 27.3516 91.1369 30.3628 92.1997 32.9468C93.2833 35.5308 94.8878 37.5418 97.0134 38.9796C99.1598 40.4175 101.827 41.1364 105.015 41.1364C108.579 41.1364 111.475 40.2404 113.705 38.4482C115.935 36.6561 117.498 34.1867 118.394 31.0401L125.021 32.8218C123.687 37.2604 121.311 40.7926 117.894 43.4183Z" fill="#2277AA"/>
<path d="M53.3235 46.419H46.7906V12.2313H53.3235V24.0696H64.7327C65.1494 24.0696 65.6079 24.0487 66.108 24.007C66.629 23.9654 67.1187 23.8924 67.5771 23.7882C69.5777 23.3089 70.9947 22.2774 71.8282 20.6937C72.6618 19.0891 73.0786 17.4637 73.0786 15.8174C73.0786 14.1503 72.6618 12.5249 71.8282 10.9412C70.9947 9.35745 69.5777 8.33635 67.5771 7.8779C67.1187 7.75287 66.629 7.66952 66.108 7.62784C65.6079 7.58616 65.1494 7.56533 64.7327 7.56533H46.7906V1.4075H64.9827C65.4203 1.4075 65.9622 1.42833 66.6082 1.47001C67.2542 1.49085 67.8689 1.55337 68.4524 1.65756C72.2242 2.24104 75.0478 3.8352 76.9233 6.44004C78.7988 9.04487 79.7365 12.1707 79.7365 15.8174C79.7365 18.8182 79.1009 21.4856 77.8298 23.8195C76.5586 26.1534 74.6415 27.8726 72.0783 28.9771L80.5805 46.419H73.1098L65.2641 30.2586H53.3235V46.419Z" fill="#2277AA"/>
<path d="M33.0266 36.2601V46.4189H39.8096V12.2268L33.0266 15.8254V29.9692H19.4815L16.0824 36.2601H33.0266Z" fill="#2277AA"/>
<rect x="136.021" y="0.469757" width="2" height="46.89" fill="#88CC44"/>
</svg>
